# This file uses centimeters as units for non-parametric coordinates.

g default
v -0.500000 0.000000 0.500000
v -0.388889 0.000000 0.500000
v -0.277778 0.000000 0.500000
v -0.166667 -0.000000 0.500000
v -0.055556 -0.000000 0.500000
v 0.055556 -0.000000 0.500000
v 0.166667 0.000000 0.500000
v 0.277778 0.000000 0.500000
v 0.388889 0.000000 0.500000
v 0.500000 0.000000 0.500000
v -0.500000 0.000000 0.388889
v -0.388889 -0.000000 0.388889
v -0.277778 -0.000000 0.388889
v -0.166667 0.004327 0.388889
v -0.055556 0.053183 0.388889
v 0.055556 0.046071 0.388889
v 0.166667 0.000000 0.388889
v 0.277778 -0.000000 0.388889
v 0.388889 -0.000000 0.388889
v 0.500000 0.000000 0.388889
v -0.500000 0.000000 0.277778
v -0.388889 0.000000 0.277778
v -0.277778 0.028797 0.277778
v -0.166667 0.028404 0.277778
v -0.055556 0.037133 0.277778
v 0.055556 0.040315 0.277778
v 0.166667 -0.000000 0.277778
v 0.277778 -0.000000 0.277778
v 0.388889 -0.000000 0.277778
v 0.500000 0.000000 0.277778
v -0.500000 0.000000 0.166667
v -0.388889 -0.000000 0.166667
v -0.277778 0.026376 0.166667
v -0.166667 0.022751 0.166667
v -0.055556 0.059761 0.166667
v 0.055556 0.065189 0.166667
v 0.166667 0.041064 0.166667
v 0.277778 -0.000000 0.166667
v 0.388889 -0.000000 0.166667
v 0.500000 0.000000 0.166667
v -0.500000 0.000000 0.055556
v -0.388889 -0.000000 0.055556
v -0.277778 0.017518 0.055556
v -0.166667 0.044521 0.055556
v -0.055556 0.148117 0.055556
v 0.055556 0.168947 0.055556
v 0.166667 0.128564 0.055556
v 0.277778 0.041064 0.055556
v 0.388889 -0.000000 0.055556
v 0.500000 0.000000 0.055556
v -0.500000 0.000000 -0.055556
v -0.388889 0.000000 -0.055556
v -0.277778 -0.000589 -0.055556
v -0.166667 0.063068 -0.055556
v -0.055556 0.149590 -0.055556
v 0.055556 0.161446 -0.055556
v 0.166667 0.102712 -0.055556
v 0.277778 0.041064 -0.055556
v 0.388889 0.000000 -0.055556
v 0.500000 0.000000 -0.055556
v -0.500000 0.000000 -0.166667
v -0.388889 0.000000 -0.166667
v -0.277778 0.011871 -0.166667
v -0.166667 0.073653 -0.166667
v -0.055556 0.098126 -0.166667
v 0.055556 0.089876 -0.166667
v 0.166667 0.036607 -0.166667
v 0.277778 0.000000 -0.166667
v 0.388889 0.000000 -0.166667
v 0.500000 0.000000 -0.166667
v -0.500000 0.000000 -0.277778
v -0.388889 0.000000 -0.277778
v -0.277778 0.041064 -0.277778
v -0.166667 0.069938 -0.277778
v -0.055556 0.055677 -0.277778
v 0.055556 -0.002705 -0.277778
v 0.166667 -0.000113 -0.277778
v 0.277778 0.000000 -0.277778
v 0.388889 0.000000 -0.277778
v 0.500000 0.000000 -0.277778
v -0.500000 0.000000 -0.388889
v -0.388889 0.000000 -0.388889
v -0.277778 0.041064 -0.388889
v -0.166667 0.041064 -0.388889
v -0.055556 0.018001 -0.388889
v 0.055556 0.000000 -0.388889
v 0.166667 0.000000 -0.388889
v 0.277778 0.000000 -0.388889
v 0.388889 0.000000 -0.388889
v 0.500000 0.000000 -0.388889
v -0.500000 0.000000 -0.500000
v -0.388889 0.000000 -0.500000
v -0.277778 0.000000 -0.500000
v -0.166667 0.000000 -0.500000
v -0.055556 0.000000 -0.500000
v 0.055556 0.000000 -0.500000
v 0.166667 0.000000 -0.500000
v 0.277778 0.000000 -0.500000
v 0.388889 0.000000 -0.500000
v 0.500000 0.000000 -0.500000
v -0.041449 0.167972 0.040551
v 0.040876 0.180262 0.040620
v 0.040916 0.176766 -0.041814
v -0.041489 0.166212 -0.041745
v -0.000019 0.167081 -0.067987
v 0.000307 0.147316 -0.086502
v 0.000000 0.089937 -0.166667
v 0.000000 0.024582 -0.277778
v 0.055170 0.183684 0.001050
v 0.072962 0.171628 0.001867
v 0.166667 0.122935 -0.000000
v 0.000739 0.175716 0.057770
v 0.001167 0.161133 0.076260
v 0.000000 0.055846 0.166667
v -0.059716 0.161104 0.000021
v -0.077463 0.140623 0.000699
v -0.166667 0.048657 -0.000000
v -0.028018 0.163383 0.026185
v -0.000115 0.165334 0.033967
v 0.026915 0.167566 0.026385
v 0.037866 0.170498 -0.000608
v 0.026993 0.167659 -0.028801
v -0.000544 0.162531 -0.042458
v -0.028116 0.158262 -0.028656
v -0.041649 0.155484 -0.001191
v -0.030552 0.095800 0.031394
v -0.002649 0.091859 0.037944
v 0.024381 0.090461 0.031593
v 0.029349 0.092860 0.004601
v 0.024459 0.093340 -0.023592
v -0.003078 0.091337 -0.036019
v -0.030650 0.086953 -0.023447
v -0.038200 0.088522 0.004017
v 0.055556 0.120009 0.109479
v 0.000719 0.121588 0.110949
v -0.055556 0.105488 0.102762
vt 0.000000 0.000000
vt 0.111111 0.000000
vt 0.222222 0.000000
vt 0.333333 0.000000
vt 0.444444 0.000000
vt 0.555556 0.000000
vt 0.666667 0.000000
vt 0.777778 0.000000
vt 0.888889 0.000000
vt 1.000000 0.000000
vt 0.000000 0.111111
vt 0.111111 0.111111
vt 0.222222 0.111111
vt 0.333333 0.111111
vt 0.444444 0.111111
vt 0.555556 0.111111
vt 0.666667 0.111111
vt 0.777778 0.111111
vt 0.888889 0.111111
vt 1.000000 0.111111
vt 0.000000 0.222222
vt 0.111111 0.222222
vt 0.222222 0.222222
vt 0.333333 0.222222
vt 0.444444 0.222222
vt 0.555556 0.222222
vt 0.666667 0.222222
vt 0.777778 0.222222
vt 0.888889 0.222222
vt 1.000000 0.222222
vt 0.000000 0.333333
vt 0.111111 0.333333
vt 0.222222 0.333333
vt 0.333333 0.333333
vt 0.444444 0.333333
vt 0.555556 0.333333
vt 0.666667 0.333333
vt 0.777778 0.333333
vt 0.888889 0.333333
vt 1.000000 0.333333
vt 0.000000 0.444444
vt 0.111111 0.444444
vt 0.222222 0.444444
vt 0.333333 0.444444
vt 0.444444 0.444444
vt 0.555556 0.444444
vt 0.666667 0.444444
vt 0.777778 0.444444
vt 0.888889 0.444444
vt 1.000000 0.444444
vt 0.000000 0.555556
vt 0.111111 0.555556
vt 0.222222 0.555556
vt 0.333333 0.555556
vt 0.444444 0.555556
vt 0.555556 0.555556
vt 0.666667 0.555556
vt 0.777778 0.555556
vt 0.888889 0.555556
vt 1.000000 0.555556
vt 0.000000 0.666667
vt 0.111111 0.666667
vt 0.222222 0.666667
vt 0.333333 0.666667
vt 0.444444 0.666667
vt 0.555556 0.666667
vt 0.666667 0.666667
vt 0.777778 0.666667
vt 0.888889 0.666667
vt 1.000000 0.666667
vt 0.000000 0.777778
vt 0.111111 0.777778
vt 0.222222 0.777778
vt 0.333333 0.777778
vt 0.444444 0.777778
vt 0.555556 0.777778
vt 0.666667 0.777778
vt 0.777778 0.777778
vt 0.888889 0.777778
vt 1.000000 0.777778
vt 0.000000 0.888889
vt 0.111111 0.888889
vt 0.222222 0.888889
vt 0.333333 0.888889
vt 0.444444 0.888889
vt 0.555556 0.888889
vt 0.666667 0.888889
vt 0.777778 0.888889
vt 0.888889 0.888889
vt 1.000000 0.888889
vt 0.000000 1.000000
vt 0.111111 1.000000
vt 0.222222 1.000000
vt 0.333333 1.000000
vt 0.444444 1.000000
vt 0.555556 1.000000
vt 0.666667 1.000000
vt 0.777778 1.000000
vt 0.888889 1.000000
vt 1.000000 1.000000
vt 0.444444 0.444444
vt 0.555556 0.444444
vt 0.555556 0.555556
vt 0.444444 0.555556
vt 0.500000 0.555556
vt 0.500000 0.555556
vt 0.500000 0.666667
vt 0.500000 0.777778
vt 0.555556 0.500000
vt 0.555556 0.500000
vt 0.666667 0.500000
vt 0.500000 0.444444
vt 0.500000 0.444444
vt 0.500000 0.333333
vt 0.444444 0.500000
vt 0.444444 0.500000
vt 0.333333 0.500000
vt 0.444444 0.444444
vt 0.500000 0.444444
vt 0.555556 0.444444
vt 0.555556 0.500000
vt 0.555556 0.555556
vt 0.500000 0.555556
vt 0.444444 0.555556
vt 0.444444 0.500000
vt 0.444444 0.444444
vt 0.500000 0.444444
vt 0.555556 0.444444
vt 0.555556 0.500000
vt 0.555556 0.555556
vt 0.500000 0.555556
vt 0.444444 0.555556
vt 0.444444 0.500000
vt 0.555556 0.390521
vt 0.500000 0.401811
vt 0.444444 0.397238
vn 0.000000 1.000000 -0.000000
vn 0.000000 1.000000 -0.000000
vn 0.000000 1.000000 -0.000000
vn 0.000000 1.000000 -0.000000
vn 0.000000 1.000000 -0.000000
vn 0.000000 1.000000 -0.000000
vn 0.000000 1.000000 -0.000000
vn 0.000000 1.000000 -0.000000
vn -0.019466 0.999621 0.019466
vn -0.019466 0.999621 0.019466
vn -0.019466 0.999621 0.019466
vn -0.019466 0.999621 0.019466
vn -0.208176 0.946895 0.245055
vn -0.208176 0.946895 0.245055
vn -0.208176 0.946895 0.245055
vn -0.208176 0.946895 0.245055
vn 0.029209 0.912674 0.407643
vn 0.029209 0.912674 0.407643
vn 0.029209 0.912674 0.407643
vn 0.029209 0.912674 0.407643
vn 0.198946 0.959605 0.198947
vn 0.198946 0.959605 0.198947
vn 0.198946 0.959605 0.198947
vn 0.198946 0.959604 0.198946
vn 0.000000 1.000000 0.000000
vn 0.000000 1.000000 0.000000
vn 0.000000 1.000000 0.000000
vn 0.000000 1.000000 0.000000
vn 0.000000 1.000000 -0.000000
vn 0.000000 1.000000 -0.000000
vn 0.000000 1.000000 -0.000000
vn 0.000000 1.000000 -0.000000
vn -0.000000 1.000000 -0.000000
vn -0.000000 1.000000 -0.000000
vn -0.000000 1.000000 -0.000000
vn -0.000000 1.000000 -0.000000
vn -0.000000 1.000000 0.000000
vn -0.000000 1.000000 0.000000
vn -0.000000 1.000000 0.000000
vn -0.000000 1.000000 0.000000
vn -0.127465 0.983618 0.127466
vn -0.127465 0.983618 0.127466
vn -0.127465 0.983618 0.127466
vn -0.127465 0.983618 0.127466
vn -0.017219 0.972698 0.231436
vn -0.017219 0.972698 0.231436
vn -0.017219 0.972698 0.231436
vn -0.017220 0.972698 0.231436
vn -0.250692 0.967436 0.034940
vn -0.250692 0.967436 0.034940
vn -0.250692 0.967436 0.034940
vn -0.250692 0.967436 0.034940
vn 0.017596 0.995065 -0.097649
vn 0.017596 0.995065 -0.097649
vn 0.017596 0.995065 -0.097649
vn 0.017596 0.995065 -0.097649
vn 0.362218 0.931781 -0.024138
vn 0.362218 0.931781 -0.024138
vn 0.362218 0.931781 -0.024138
vn 0.362218 0.931781 -0.024138
vn 0.000000 1.000000 -0.000000
vn 0.000000 1.000000 -0.000000
vn 0.000000 1.000000 -0.000000
vn 0.000000 1.000000 -0.000000
vn -0.000000 1.000000 -0.000000
vn -0.000000 1.000000 -0.000000
vn -0.000000 1.000000 -0.000000
vn -0.000000 1.000000 -0.000000
vn -0.000000 1.000000 0.000000
vn -0.000000 1.000000 0.000000
vn -0.000000 1.000000 0.000000
vn -0.000000 1.000000 0.000000
vn -0.000000 1.000000 -0.000000
vn -0.000000 1.000000 -0.000000
vn -0.000000 1.000000 -0.000000
vn -0.000000 1.000000 -0.000000
vn -0.240949 0.970480 -0.010576
vn -0.240949 0.970480 -0.010576
vn -0.240949 0.970480 -0.010576
vn -0.240949 0.970480 -0.010576
vn 0.018069 0.999177 -0.036308
vn 0.018069 0.999177 -0.036308
vn 0.018069 0.999177 -0.036308
vn 0.018069 0.999177 -0.036308
vn -0.201037 0.976738 0.074610
vn -0.201037 0.976738 0.074610
vn -0.201037 0.976738 0.074610
vn -0.201037 0.976738 0.074610
vn -0.038081 0.982789 0.180764
vn -0.038081 0.982789 0.180764
vn -0.038081 0.982789 0.180764
vn -0.038081 0.982789 0.180764
vn -0.038081 0.982789 0.180764
vn 0.267843 0.923659 0.274070
vn 0.267843 0.923659 0.274070
vn 0.267843 0.923659 0.274070
vn 0.267843 0.923659 0.274070
vn 0.178784 0.967509 0.178784
vn 0.178784 0.967509 0.178784
vn 0.178784 0.967509 0.178784
vn 0.178784 0.967509 0.178784
vn -0.000000 1.000000 0.000000
vn -0.000000 1.000000 0.000000
vn -0.000000 1.000000 0.000000
vn -0.000000 1.000000 0.000000
vn -0.000000 1.000000 0.000000
vn -0.000000 1.000000 0.000000
vn -0.000000 1.000000 0.000000
vn -0.000000 1.000000 0.000000
vn 0.000000 1.000000 0.000000
vn 0.000000 1.000000 0.000000
vn 0.000000 1.000000 0.000000
vn 0.000000 1.000000 0.000000
vn -0.193631 0.980296 -0.039073
vn -0.193631 0.980296 -0.039073
vn -0.193631 0.980296 -0.039073
vn -0.193631 0.980296 -0.039073
vn -0.104447 0.992856 0.057693
vn -0.104447 0.992856 0.057693
vn -0.104447 0.992856 0.057693
vn -0.104447 0.992856 0.057693
vn -0.487463 0.776152 0.399959
vn -0.494472 0.766916 0.409070
vn -0.570093 0.643046 0.511356
vn -0.570093 0.643046 0.511356
vn 0.022257 0.693745 0.719877
vn -0.104531 0.703314 0.703152
vn -0.085195 0.706436 0.702631
vn -0.038341 0.683168 0.729254
vn 0.212992 0.744054 0.633260
vn 0.168153 0.774448 0.609881
vn 0.228283 0.732972 0.640812
vn 0.447766 0.773958 0.447766
vn 0.447766 0.773958 0.447766
vn 0.447766 0.773958 0.447766
vn 0.447766 0.773958 0.447766
vn 0.178784 0.967509 0.178784
vn 0.178784 0.967509 0.178784
vn 0.178784 0.967509 0.178784
vn 0.178784 0.967509 0.178784
vn -0.000000 1.000000 0.000000
vn -0.000000 1.000000 0.000000
vn -0.000000 1.000000 0.000000
vn -0.000000 1.000000 0.000000
vn -0.000000 1.000000 0.000000
vn -0.000000 1.000000 0.000000
vn -0.000000 1.000000 0.000000
vn -0.000000 1.000000 0.000000
vn -0.075711 0.993836 -0.080982
vn -0.075711 0.993836 -0.080982
vn -0.075711 0.993836 -0.080982
vn -0.075711 0.993836 -0.080982
vn -0.359170 0.933270 0.001847
vn -0.359170 0.933270 0.001847
vn -0.359170 0.933270 0.001847
vn -0.359170 0.933270 0.001847
vn -0.359170 0.933270 0.001847
vn -0.694052 0.710503 0.116096
vn -0.694052 0.710503 0.116096
vn -0.680705 0.729029 0.071819
vn -0.681768 0.727698 0.075156
vn -0.040354 0.998678 -0.031840
vn -0.040354 0.998678 -0.031840
vn -0.040354 0.998678 -0.031840
vn -0.040354 0.998678 -0.031840
vn -0.040354 0.998678 -0.031840
vn -0.040354 0.998678 -0.031840
vn -0.040354 0.998678 -0.031840
vn -0.040354 0.998678 -0.031840
vn 0.440489 0.888836 -0.126254
vn 0.429283 0.890174 -0.152662
vn 0.441559 0.847008 -0.295977
vn 0.302090 0.847066 -0.437288
vn 0.573071 0.814016 -0.094699
vn 0.573071 0.814016 -0.094699
vn 0.573071 0.814016 -0.094699
vn 0.573071 0.814016 -0.094699
vn 0.573071 0.814016 -0.094699
vn 0.346658 0.937992 0.000000
vn 0.346658 0.937992 0.000000
vn 0.346658 0.937992 0.000000
vn 0.346658 0.937992 0.000000
vn 0.000000 1.000000 0.000000
vn 0.000000 1.000000 0.000000
vn 0.000000 1.000000 0.000000
vn 0.000000 1.000000 0.000000
vn -0.000000 1.000000 0.000000
vn -0.000000 1.000000 0.000000
vn -0.000000 1.000000 0.000000
vn -0.000000 1.000000 0.000000
vn -0.050624 0.997152 0.055913
vn -0.050624 0.997152 0.055913
vn -0.050624 0.997151 0.055913
vn -0.050624 0.997152 0.055913
vn -0.489577 0.867309 0.089943
vn -0.489577 0.867309 0.089943
vn -0.489577 0.867309 0.089943
vn -0.489577 0.867309 0.089943
vn -0.445456 0.879403 -0.167985
vn -0.464593 0.864498 -0.191825
vn -0.214180 0.972392 0.092631
vn -0.236534 0.840107 -0.488132
vn -0.009407 0.838068 -0.545484
vn 0.000038 0.848841 -0.528649
vn -0.055637 0.867831 -0.493735
vn 0.393503 0.781716 -0.483814
vn 0.394373 0.780804 -0.484578
vn 0.380948 0.794599 -0.472748
vn 0.369991 0.836807 -0.403561
vn 0.369991 0.836807 -0.403561
vn 0.369991 0.836807 -0.403561
vn 0.369991 0.836807 -0.403561
vn 0.178784 0.967509 -0.178784
vn 0.178784 0.967509 -0.178784
vn 0.178784 0.967509 -0.178784
vn 0.178784 0.967509 -0.178784
vn 0.000000 1.000000 0.000000
vn 0.000000 1.000000 0.000000
vn 0.000000 1.000000 0.000000
vn 0.000000 1.000000 0.000000
vn -0.000000 1.000000 0.000000
vn -0.000000 1.000000 0.000000
vn -0.000000 1.000000 0.000000
vn -0.000000 1.000000 0.000000
vn -0.229855 0.964934 0.126761
vn -0.229855 0.964934 0.126761
vn -0.229855 0.964934 0.126761
vn -0.229855 0.964934 0.126761
vn -0.375617 0.920744 0.105562
vn -0.375617 0.920744 0.105562
vn -0.375617 0.920744 0.105562
vn -0.375617 0.920744 0.105562
vn -0.044950 0.978106 -0.203194
vn -0.044950 0.978106 -0.203194
vn -0.044950 0.978106 -0.203194
vn -0.044950 0.978106 -0.203194
vn 0.303137 0.857383 -0.415935
vn 0.250472 0.831880 -0.495218
vn 0.241086 0.826632 -0.508485
vn 0.303137 0.857383 -0.415935
vn 0.193390 0.848019 -0.493420
vn 0.193390 0.848020 -0.493420
vn 0.193390 0.848020 -0.493420
vn 0.193390 0.848019 -0.493420
vn 0.159937 0.973921 -0.160929
vn 0.159937 0.973921 -0.160929
vn 0.159937 0.973921 -0.160929
vn 0.159937 0.973921 -0.160929
vn 0.000000 1.000000 0.000000
vn 0.000000 1.000000 0.000000
vn 0.000000 1.000000 0.000000
vn 0.000000 1.000000 0.000000
vn 0.000000 1.000000 0.000000
vn 0.000000 1.000000 0.000000
vn 0.000000 1.000000 0.000000
vn 0.000000 1.000000 0.000000
vn -0.000000 1.000000 0.000000
vn -0.000000 1.000000 0.000000
vn -0.000000 1.000000 0.000000
vn -0.000000 1.000000 0.000000
vn -0.346658 0.937991 0.000000
vn -0.346658 0.937991 0.000000
vn -0.346658 0.937991 0.000000
vn -0.346658 0.937991 0.000000
vn -0.127792 0.983534 -0.127792
vn -0.127792 0.983534 -0.127792
vn -0.127792 0.983534 -0.127792
vn -0.127792 0.983534 -0.127792
vn 0.158853 0.945802 -0.283240
vn 0.158853 0.945802 -0.283240
vn 0.158853 0.945802 -0.283240
vn 0.158853 0.945802 -0.283240
vn 0.321885 0.936468 -0.139345
vn 0.321885 0.936468 -0.139345
vn 0.321885 0.936468 -0.139345
vn 0.321885 0.936468 -0.139345
vn 0.321885 0.936468 -0.139345
vn -0.011661 0.999852 0.012679
vn -0.011661 0.999852 0.012679
vn -0.011661 0.999852 0.012679
vn -0.011661 0.999852 0.012679
vn -0.000509 1.000000 0.000509
vn -0.000509 1.000000 0.000509
vn -0.000509 1.000000 0.000509
vn -0.000509 1.000000 0.000509
vn 0.000000 1.000000 0.000000
vn 0.000000 1.000000 0.000000
vn 0.000000 1.000000 0.000000
vn 0.000000 1.000000 0.000000
vn 0.000000 1.000000 0.000000
vn 0.000000 1.000000 0.000000
vn 0.000000 1.000000 0.000000
vn 0.000000 1.000000 0.000000
vn -0.000000 1.000000 -0.000000
vn -0.000000 1.000000 -0.000000
vn -0.000000 1.000000 -0.000000
vn -0.000000 1.000000 -0.000000
vn -0.178784 0.967509 -0.178784
vn -0.178784 0.967509 -0.178784
vn -0.178784 0.967509 -0.178784
vn -0.178784 0.967509 -0.178784
vn 0.000000 0.937992 -0.346658
vn 0.000000 0.937992 -0.346658
vn 0.000000 0.937992 -0.346658
vn 0.000000 0.937992 -0.346658
vn 0.099799 0.961620 -0.255592
vn 0.099799 0.961620 -0.255592
vn 0.099799 0.961620 -0.255592
vn 0.099799 0.961620 -0.255592
vn 0.080480 0.993502 -0.080480
vn 0.080480 0.993502 -0.080480
vn 0.080480 0.993502 -0.080480
vn 0.080480 0.993502 -0.080480
vn 0.000000 1.000000 -0.000000
vn 0.000000 1.000000 -0.000000
vn 0.000000 1.000000 -0.000000
vn 0.000000 1.000000 -0.000000
vn 0.000000 1.000000 -0.000000
vn 0.000000 1.000000 -0.000000
vn 0.000000 1.000000 -0.000000
vn 0.000000 1.000000 -0.000000
vn 0.000000 1.000000 -0.000000
vn 0.000000 1.000000 -0.000000
vn 0.000000 1.000000 -0.000000
vn 0.000000 1.000000 -0.000000
vn 0.000000 1.000000 -0.000000
vn 0.000000 1.000000 -0.000000
vn 0.000000 1.000000 -0.000000
vn 0.000000 1.000000 -0.000000
vn -0.155177 0.931141 0.329994
vn -0.168334 0.782786 0.599090
vn 0.380272 0.914618 0.137353
vn 0.319265 0.853246 0.412360
vn 0.197959 0.978323 -0.060795
vn 0.156418 0.926895 -0.341173
vn -0.087323 0.862883 -0.497803
vn -0.381691 0.887642 -0.257689
vn -0.556664 0.830737 -0.000170
vn -0.733709 0.679269 0.016295
vn -0.591066 0.707004 0.388314
vn -0.437885 0.866419 0.239948
vn 0.050796 0.828066 -0.558325
vn 0.196704 0.799185 -0.567989
vn 0.196704 0.799185 -0.567989
vn 0.398816 0.916209 0.038817
vn -0.128562 0.725914 0.675663
vn -0.217242 0.704867 0.675254
vn -0.665088 0.746322 0.025737
vn -0.665088 0.746322 0.025737
vn -0.122191 0.907923 -0.400930
vn 0.077152 0.941235 -0.328822
vn -0.423102 0.855280 -0.299134
vn -0.412028 0.857426 -0.308306
vn -0.575757 0.817119 -0.028647
vn -0.432963 0.888333 0.152997
vn -0.116710 0.961466 0.248923
vn 0.191584 0.945100 0.264730
vn 0.247843 0.968766 -0.008143
vn 0.245703 -0.071779 -0.966684
vn -0.022439 -0.062264 -0.997807
vn -0.015469 -0.062569 -0.997921
vn 0.245703 -0.071779 -0.966684
vn -0.248517 -0.050645 -0.967303
vn -0.248517 -0.050645 -0.967303
vn -0.959295 0.049795 -0.277980
vn -0.997284 0.072833 0.010951
vn -0.997258 0.070478 -0.022547
vn -0.959295 0.049795 -0.277980
vn -0.960283 0.087988 0.264793
vn -0.960283 0.087988 0.264793
vn -0.435590 0.086890 0.895942
vn -0.435590 0.086890 0.895942
vn -0.435590 0.086890 0.895942
vn -0.435590 0.086890 0.895942
vn 0.423197 0.058853 0.904124
vn 0.423197 0.058853 0.904124
vn 0.423197 0.058853 0.904124
vn 0.423197 0.058853 0.904124
vn 0.932835 0.033202 0.358772
vn 0.932835 0.033202 0.358772
vn 0.932835 0.033202 0.358772
vn 0.932835 0.033202 0.358771
vn 0.933849 -0.021292 -0.357033
vn 0.933849 -0.021292 -0.357033
vn 0.933849 -0.021292 -0.357033
vn 0.933849 -0.021292 -0.357033
vn -0.310698 0.932773 0.182761
vn -0.577064 0.741069 -0.343240
vn 0.406098 0.768248 -0.494853
vn 0.265113 0.704726 0.658086
vn 0.265113 0.704726 0.658086
vn -0.105282 0.703225 0.703129
vn 0.102576 0.703635 0.703119
vn -0.341208 0.664473 0.664871
s off
g pPlane1
f 1/1/1 2/2/2 12/12/3 11/11/4
f 2/2/5 3/3/6 13/13/7 12/12/8
f 3/3/9 4/4/10 14/14/11 13/13/12
f 4/4/13 5/5/14 15/15/15 14/14/16
f 5/5/17 6/6/18 16/16/19 15/15/20
f 6/6/21 7/7/22 17/17/23 16/16/24
f 7/7/25 8/8/26 18/18/27 17/17/28
f 8/8/29 9/9/30 19/19/31 18/18/32
f 9/9/33 10/10/34 20/20/35 19/19/36
f 11/11/37 12/12/38 22/22/39 21/21/40
f 12/12/41 13/13/42 23/23/43 22/22/44
f 13/13/45 14/14/46 24/24/47 23/23/48
f 14/14/49 15/15/50 25/25/51 24/24/52
f 15/15/53 16/16/54 26/26/55 25/25/56
f 16/16/57 17/17/58 27/27/59 26/26/60
f 17/17/61 18/18/62 28/28/63 27/27/64
f 18/18/65 19/19/66 29/29/67 28/28/68
f 19/19/69 20/20/70 30/30/71 29/29/72
f 21/21/73 22/22/74 32/32/75 31/31/76
f 22/22/77 23/23/78 33/33/79 32/32/80
f 23/23/81 24/24/82 34/34/83 33/33/84
f 24/24/85 25/25/86 35/35/87 34/34/88
f 25/25/89 26/26/90 36/36/91 114/114/92 35/35/93
f 26/26/94 27/27/95 37/37/96 36/36/97
f 27/27/98 28/28/99 38/38/100 37/37/101
f 28/28/102 29/29/103 39/39/104 38/38/105
f 29/29/106 30/30/107 40/40/108 39/39/109
f 31/31/110 32/32/111 42/42/112 41/41/113
f 32/32/114 33/33/115 43/43/116 42/42/117
f 33/33/118 34/34/119 44/44/120 43/43/121
s 1
f 44/44/122 35/35/123 136/136/124 45/45/125
s 2
f 134/134/126 135/135/127 114/114/128 36/36/129
s 3
f 36/36/130 37/37/131 47/47/132
s off
f 37/37/133 38/38/134 48/48/135 47/47/136
f 38/38/137 39/39/138 49/49/139 48/48/140
f 39/39/141 40/40/142 50/50/143 49/49/144
f 41/41/145 42/42/146 52/52/147 51/51/148
f 42/42/149 43/43/150 53/53/151 52/52/152
f 43/43/153 44/44/154 117/117/155 54/54/156 53/53/157
s 4
f 44/44/158 45/45/159 116/116/160 117/117/161
s off
f 126/126/162 127/127/163 128/128/164 129/129/165 130/130/166 131/131/167 132/132/168 133/133/169
s 5
f 110/110/170 111/111/171 57/57/172 56/56/173
s off
f 47/47/174 48/48/175 58/58/176 57/57/177 111/111/178
f 48/48/179 49/49/180 59/59/181 58/58/182
f 49/49/183 50/50/184 60/60/185 59/59/186
f 51/51/187 52/52/188 62/62/189 61/61/190
f 52/52/191 53/53/192 63/63/193 62/62/194
f 53/53/195 54/54/196 64/64/197 63/63/198
s 6
f 54/54/199 65/65/200 64/64/201
s 5
f 55/55/202 106/106/203 107/107/204 65/65/205
s 8
f 66/66/206 57/57/207 67/67/208
s off
f 57/57/209 58/58/210 68/68/211 67/67/212
f 58/58/213 59/59/214 69/69/215 68/68/216
f 59/59/217 60/60/218 70/70/219 69/69/220
f 61/61/221 62/62/222 72/72/223 71/71/224
f 62/62/225 63/63/226 73/73/227 72/72/228
f 63/63/229 64/64/230 74/74/231 73/73/232
f 64/64/233 65/65/234 75/75/235 74/74/236
s 9
f 65/65/237 107/107/238 108/108/239 75/75/240
s off
f 66/66/241 67/67/242 77/77/243 76/76/244
f 67/67/245 68/68/246 78/78/247 77/77/248
f 68/68/249 69/69/250 79/79/251 78/78/252
f 69/69/253 70/70/254 80/80/255 79/79/256
f 71/71/257 72/72/258 82/82/259 81/81/260
f 72/72/261 73/73/262 83/83/263 82/82/264
f 73/73/265 74/74/266 84/84/267 83/83/268
f 74/74/269 75/75/270 85/85/271 84/84/272
f 75/75/273 108/108/274 76/76/275 86/86/276 85/85/277
f 76/76/278 77/77/279 87/87/280 86/86/281
f 77/77/282 78/78/283 88/88/284 87/87/285
f 78/78/286 79/79/287 89/89/288 88/88/289
f 79/79/290 80/80/291 90/90/292 89/89/293
f 81/81/294 82/82/295 92/92/296 91/91/297
f 82/82/298 83/83/299 93/93/300 92/92/301
f 83/83/302 84/84/303 94/94/304 93/93/305
f 84/84/306 85/85/307 95/95/308 94/94/309
f 85/85/310 86/86/311 96/96/312 95/95/313
f 86/86/314 87/87/315 97/97/316 96/96/317
f 87/87/318 88/88/319 98/98/320 97/97/321
f 88/88/322 89/89/323 99/99/324 98/98/325
f 89/89/326 90/90/327 100/100/328 99/99/329
s 5
f 112/112/330 113/113/331 46/46/332 102/102/333
f 109/109/334 110/110/170 56/56/173 103/103/335
f 105/105/336 106/106/203 55/55/202 104/104/337
f 115/115/338 116/116/339 45/45/340 101/101/341
f 56/56/173 106/106/203 105/105/336 103/103/335
f 107/107/204 106/106/203 56/56/173 66/66/342
s 9
f 108/108/239 107/107/238 66/66/343 76/76/344
s 5
f 46/46/332 110/110/170 109/109/334 102/102/333
f 46/46/332 47/47/345 111/111/171 110/110/170
f 45/45/340 113/113/331 112/112/330 101/101/341
s 2
f 35/35/346 114/114/128 135/135/127 136/136/347
s 5
f 55/55/202 116/116/339 115/115/338 104/104/337
s 4
f 117/117/161 116/116/160 55/55/348 54/54/349
s 5
f 101/101/341 112/112/330 119/119/350 118/118/351
f 112/112/330 102/102/352 120/120/353 119/119/350
f 102/102/352 109/109/334 121/121/354 120/120/353
f 109/109/334 103/103/335 122/122/355 121/121/354
f 103/103/335 105/105/336 123/123/356 122/122/355
f 105/105/336 104/104/337 124/124/357 123/123/356
f 104/104/337 115/115/338 125/125/358 124/124/357
f 115/115/338 101/101/341 118/118/351 125/125/358
s 11
f 118/118/359 119/119/360 127/127/361 126/126/362
f 119/119/360 120/120/363 128/128/364 127/127/361
s 12
f 120/120/365 121/121/366 129/129/367 128/128/368
f 121/121/366 122/122/369 130/130/370 129/129/367
s off
f 122/122/371 123/123/372 131/131/373 130/130/374
f 123/123/375 124/124/376 132/132/377 131/131/378
f 124/124/379 125/125/380 133/133/381 132/132/382
f 125/125/383 118/118/384 126/126/385 133/133/386
s 1
f 34/34/387 35/35/123 44/44/122
s 6
f 54/54/199 55/55/388 65/65/200
s 8
f 56/56/389 57/57/207 66/66/206
s 3
f 36/36/130 47/47/132 46/46/390 134/134/391
s 2
f 113/113/392 135/135/127 134/134/126 46/46/393
f 136/136/347 135/135/127 113/113/392 45/45/394
