# This file uses centimeters as units for non-parametric coordinates.

g default
v -0.384599 0.000000 0.507386
v 0.005656 0.000000 0.492282
v -0.467499 0.562446 0.077338
v 0.019305 0.562409 0.045192
v -0.553382 0.000000 -0.479273
v 0.036923 0.000000 -0.521398
v -1.121161 0.000000 -0.311502
v -0.798476 0.000000 0.636052
v -0.958375 0.533096 0.218147
v -1.688984 0.000000 0.077068
v -1.054916 0.000000 0.851627
v -1.370746 0.473280 0.505119
v -2.006573 0.000000 0.604867
v -1.253098 0.000000 1.028962
v -1.629149 0.403394 0.840399
v -2.150994 0.000000 1.185287
v -1.400454 0.000000 1.338072
v -1.767366 0.315832 1.260488
v -2.183669 0.000000 1.599094
v -1.522361 0.000000 1.609763
v -1.846614 0.247985 1.585987
v -2.045090 0.000000 2.081289
v -1.444892 0.000000 1.940158
v -1.740353 0.167597 1.971655
v -1.747890 0.000000 2.422219
v -1.368009 0.000000 2.145474
v -1.556471 0.113345 2.231932
v -1.478231 0.000000 2.585208
v -1.232304 0.000000 2.307894
v -1.356061 0.066618 2.389830
v -1.202027 0.000000 2.656224
v -1.077971 0.000000 2.444682
v -1.141678 0.039225 2.492351
v -1.007311 0.000000 2.674611
v -0.952541 0.000000 2.540704
v -0.981390 0.014720 2.549502
v -0.869062 0.000000 2.595051
v 0.395575 0.000000 0.528483
v 0.505206 0.562446 0.104460
v 0.625728 0.000000 -0.445691
v 1.181903 0.000000 -0.242743
v 0.800596 0.000000 0.682778
v 0.986318 0.533096 0.275691
v 1.724312 0.000000 0.180575
v 1.043054 0.000000 0.913968
v 1.379934 0.473280 0.587887
v 2.008277 0.000000 0.727202
v 1.229761 0.000000 1.103348
v 1.616865 0.403394 0.938671
v 2.116119 0.000000 1.315516
v 1.357500 0.000000 1.421068
v 1.728543 0.315832 1.366581
v 2.122857 0.000000 1.730557
v 1.462170 0.000000 1.699850
v 1.787284 0.247985 1.696398
v 1.954390 0.000000 2.203142
v 1.364200 0.000000 2.024755
v 1.657109 0.167597 2.074667
v 1.636452 0.000000 2.524820
v 1.274620 0.000000 2.224861
v 1.457305 0.113345 2.322935
v 1.357133 0.000000 2.670627
v 1.129027 0.000000 2.378477
v 1.247419 0.066618 2.467992
v 1.077030 0.000000 2.724232
v 0.966444 0.000000 2.505347
v 1.027043 0.039225 2.556906
v 0.881541 0.000000 2.730407
v 0.835254 0.000000 2.593336
v 0.863500 0.014720 2.603922
v 0.748540 0.000000 2.642357
vt 0.375000 0.000000
vt 0.625000 0.000000
vt 0.291667 0.333333
vt 0.708333 0.333333
vt 0.375000 0.750000
vt 0.625000 0.750000
vt 0.375000 1.000000
vt 0.625000 1.000000
vt 0.125000 0.000000
vt 0.125000 0.000000
vt 0.375000 0.000000
vt 0.291667 0.333333
vt 0.125000 0.000000
vt 0.375000 0.000000
vt 0.291667 0.333333
vt 0.125000 0.000000
vt 0.375000 0.000000
vt 0.291667 0.333333
vt 0.125000 0.000000
vt 0.375000 0.000000
vt 0.291667 0.333333
vt 0.125000 0.000000
vt 0.375000 0.000000
vt 0.291667 0.333333
vt 0.125000 0.000000
vt 0.375000 0.000000
vt 0.291667 0.333333
vt 0.125000 0.000000
vt 0.375000 0.000000
vt 0.291667 0.333333
vt 0.125000 0.000000
vt 0.375000 0.000000
vt 0.291667 0.333333
vt 0.125000 0.000000
vt 0.375000 0.000000
vt 0.291667 0.333333
vt 0.125000 0.000000
vt 0.375000 0.000000
vt 0.291667 0.333333
vt 0.263889 0.111111
vt 0.375000 0.000000
vt 0.625000 0.000000
vt 0.708333 0.333333
vt 0.291667 0.333333
vt 0.625000 0.750000
vt 0.375000 0.750000
vt 0.625000 1.000000
vt 0.375000 1.000000
vt 0.125000 0.000000
vt 0.375000 0.000000
vt 0.125000 0.000000
vt 0.291667 0.333333
vt 0.375000 0.000000
vt 0.125000 0.000000
vt 0.291667 0.333333
vt 0.375000 0.000000
vt 0.125000 0.000000
vt 0.291667 0.333333
vt 0.375000 0.000000
vt 0.125000 0.000000
vt 0.291667 0.333333
vt 0.375000 0.000000
vt 0.125000 0.000000
vt 0.291667 0.333333
vt 0.375000 0.000000
vt 0.125000 0.000000
vt 0.291667 0.333333
vt 0.375000 0.000000
vt 0.125000 0.000000
vt 0.291667 0.333333
vt 0.375000 0.000000
vt 0.125000 0.000000
vt 0.291667 0.333333
vt 0.375000 0.000000
vt 0.125000 0.000000
vt 0.291667 0.333333
vt 0.375000 0.000000
vt 0.125000 0.000000
vt 0.291667 0.333333
vt 0.263889 0.111111
vn 0.125118 0.623784 0.771517
vn 0.042403 0.615993 0.786610
vn 0.042403 0.615993 0.786610
vn 0.125088 0.623782 0.771524
vn -0.131914 0.712096 -0.689578
vn -0.048609 0.707227 -0.705314
vn -0.048609 0.707226 -0.705314
vn -0.131220 0.712076 -0.689731
vn 0.000000 -1.000000 0.000000
vn 0.000000 -1.000000 0.000000
vn 0.000000 -1.000000 0.000000
vn 0.000000 -1.000000 0.000000
vn 0.000000 -1.000000 0.000000
vn 0.000000 -1.000000 0.000000
vn 0.291602 0.648410 0.703230
vn 0.305161 0.651141 0.694904
vn -0.313743 0.722108 -0.616543
vn -0.323791 0.722653 -0.610682
vn 0.000000 -1.000000 0.000000
vn 0.000000 -1.000000 0.000000
vn 0.438464 0.681522 0.585898
vn 0.440950 0.682712 0.582639
vn -0.493914 0.731509 -0.470046
vn -0.501625 0.731976 -0.461068
vn 0.000000 -1.000000 0.000000
vn 0.000000 -1.000000 0.000000
vn 0.538317 0.721770 0.435044
vn 0.538396 0.721795 0.434904
vn -0.624456 0.740347 -0.248881
vn -0.625738 0.740751 -0.244420
vn 0.000000 -1.000000 0.000000
vn 0.000000 -1.000000 0.000000
vn 0.590826 0.746111 0.306989
vn 0.591252 0.745317 0.308097
vn -0.641633 0.762441 -0.083609
vn -0.643448 0.760394 -0.088180
vn 0.000000 -1.000000 0.000000
vn 0.000000 -1.000000 0.000000
vn 0.578782 0.802256 0.146280
vn 0.577349 0.806940 0.124563
vn -0.564210 0.819894 0.097161
vn -0.566708 0.818779 0.091886
vn 0.000000 -1.000000 0.000000
vn 0.000000 -1.000000 0.000000
vn 0.535326 0.841202 -0.076186
vn 0.521223 0.848228 -0.093997
vn -0.432459 0.863303 0.260169
vn -0.423535 0.866152 0.265328
vn 0.000000 -1.000000 0.000000
vn 0.000000 -1.000000 0.000000
vn 0.442621 0.877102 -0.186491
vn 0.429992 0.880300 -0.200449
vn -0.247028 0.911414 0.329092
vn -0.246602 0.911526 0.329101
vn 0.000000 -1.000000 0.000000
vn 0.000000 -1.000000 0.000000
vn 0.351179 0.894186 -0.277677
vn 0.334761 0.896500 -0.290212
vn -0.098207 0.947021 0.305789
vn -0.094470 0.948246 0.303157
vn 0.000000 -1.000000 0.000000
vn 0.000000 -1.000000 0.000000
vn 0.280908 0.898630 -0.336978
vn 0.280837 0.895326 -0.345719
vn -0.020287 0.969789 0.243099
vn -0.018150 0.970410 0.240780
vn 0.000000 -1.000000 0.000000
vn 0.000000 -1.000000 0.000000
vn 0.280888 0.879117 -0.385038
vn 0.283691 0.871745 -0.399474
vn 0.033068 0.982369 0.184004
vn 0.035936 0.982907 0.180562
vn 0.000000 -1.000000 0.000000
vn 0.293081 0.843470 -0.450180
vn 0.075979 0.988330 0.132027
vn -0.169909 0.623875 0.762831
vn -0.170130 0.623890 0.762770
vn -0.085399 0.615884 0.783195
vn -0.085399 0.615884 0.783195
vn 0.172259 0.712231 -0.680481
vn 0.171805 0.712218 -0.680609
vn 0.088076 0.707231 -0.701475
vn 0.088076 0.707231 -0.701475
vn 0.000000 -1.000000 0.000000
vn 0.000000 -1.000000 0.000000
vn 0.000000 -1.000000 0.000000
vn 0.000000 -1.000000 0.000000
vn 0.000000 -1.000000 0.000000
vn 0.000000 -1.000000 0.000000
vn -0.348019 0.651142 0.674461
vn -0.335007 0.648410 0.683619
vn 0.361347 0.722652 -0.589239
vn 0.351685 0.722107 -0.595717
vn 0.000000 -1.000000 0.000000
vn 0.000000 -1.000000 0.000000
vn -0.476522 0.682712 0.553924
vn -0.474244 0.681522 0.557333
vn 0.529478 0.731974 -0.428797
vn 0.522344 0.731507 -0.438241
vn 0.000000 -1.000000 0.000000
vn 0.000000 -1.000000 0.000000
vn -0.564539 0.721793 0.400387
vn -0.564468 0.721769 0.400531
vn 0.639799 0.740749 -0.204814
vn 0.638798 0.740345 -0.209347
vn 0.000000 -1.000000 0.000000
vn 0.000000 -1.000000 0.000000
vn -0.609362 0.745317 0.270520
vn -0.608867 0.746112 0.269441
vn 0.647705 0.760392 -0.047773
vn 0.645608 0.762439 -0.043324
vn 0.000000 -1.000000 0.000000
vn 0.000000 -1.000000 0.000000
vn -0.584005 0.806942 0.088215
vn -0.586793 0.802258 0.109798
vn 0.559855 0.818777 0.127144
vn 0.557033 0.819892 0.132253
vn 0.000000 -1.000000 0.000000
vn 0.000000 -1.000000 0.000000
vn -0.514324 0.848229 -0.126410
vn -0.529513 0.841204 -0.109512
vn 0.406115 0.866150 0.291299
vn 0.415344 0.863301 0.286708
vn 0.000000 -1.000000 0.000000
vn 0.000000 -1.000000 0.000000
vn -0.416617 0.880297 -0.226952
vn -0.430094 0.877099 -0.213814
vn 0.225540 0.911526 0.343879
vn 0.225966 0.911414 0.343897
vn 0.000000 -1.000000 0.000000
vn 0.000000 -1.000000 0.000000
vn -0.315961 0.896500 -0.310576
vn -0.333131 0.894186 -0.299091
vn 0.075328 0.948247 0.308470
vn 0.078893 0.947021 0.311330
vn 0.000000 -1.000000 0.000000
vn 0.000000 -1.000000 0.000000
vn -0.258669 0.895326 -0.362605
vn -0.259286 0.898629 -0.353887
vn 0.003057 0.970410 0.241443
vn 0.005046 0.969789 0.243892
vn -0.000000 -1.000000 0.000000
vn -0.000000 -1.000000 0.000000
vn -0.258155 0.871750 -0.416424
vn -0.256263 0.879119 -0.401844
vn -0.047156 0.982907 0.177961
vn -0.044510 0.982369 0.181575
vn -0.000000 -1.000000 0.000000
vn -0.264345 0.843486 -0.467603
vn -0.084086 0.988330 0.127014
s 1
g pCube3
f 1/1/1 2/2/2 4/4/3 3/3/4
s 2
f 3/3/5 4/4/6 6/6/7 5/5/8
s 3
f 5/5/9 6/6/10 2/8/11 1/7/12
f 5/9/9 1/1/12 8/11/13 7/10/14
s 1
f 1/1/1 3/3/4 9/12/15 8/11/16
s 2
f 3/3/5 5/9/8 7/10/17 9/12/18
s 3
f 7/10/14 8/11/13 11/14/19 10/13/20
s 1
f 8/11/16 9/12/15 12/15/21 11/14/22
s 2
f 9/12/18 7/10/17 10/13/23 12/15/24
s 3
f 10/13/20 11/14/19 14/17/25 13/16/26
s 1
f 11/14/22 12/15/21 15/18/27 14/17/28
s 2
f 12/15/24 10/13/23 13/16/29 15/18/30
s 3
f 13/16/26 14/17/25 17/20/31 16/19/32
s 1
f 14/17/28 15/18/27 18/21/33 17/20/34
s 2
f 15/18/30 13/16/29 16/19/35 18/21/36
s 3
f 16/19/32 17/20/31 20/23/37 19/22/38
s 1
f 17/20/34 18/21/33 21/24/39 20/23/40
s 2
f 18/21/36 16/19/35 19/22/41 21/24/42
s 3
f 19/22/38 20/23/37 23/26/43 22/25/44
s 1
f 20/23/40 21/24/39 24/27/45 23/26/46
s 2
f 21/24/42 19/22/41 22/25/47 24/27/48
s 3
f 22/25/44 23/26/43 26/29/49 25/28/50
s 1
f 23/26/46 24/27/45 27/30/51 26/29/52
s 2
f 24/27/48 22/25/47 25/28/53 27/30/54
s 3
f 25/28/50 26/29/49 29/32/55 28/31/56
s 1
f 26/29/52 27/30/51 30/33/57 29/32/58
s 2
f 27/30/54 25/28/53 28/31/59 30/33/60
s 3
f 28/31/56 29/32/55 32/35/61 31/34/62
s 1
f 29/32/58 30/33/57 33/36/63 32/35/64
s 2
f 30/33/60 28/31/59 31/34/65 33/36/66
s 3
f 31/34/62 32/35/61 35/38/67 34/37/68
s 1
f 32/35/64 33/36/63 36/39/69 35/38/70
s 2
f 33/36/66 31/34/65 34/37/71 36/39/72
s 3
f 34/37/68 35/38/67 37/40/73
s 1
f 35/38/70 36/39/69 37/40/74
s 2
f 36/39/72 34/37/71 37/40/75
s 4
f 38/41/76 39/44/77 4/43/78 2/42/79
s 5
f 39/44/80 40/46/81 6/45/82 4/43/83
s 6
f 40/46/84 38/48/85 2/47/86 6/45/87
f 40/49/84 41/51/88 42/50/89 38/41/85
s 4
f 38/41/76 42/50/90 43/52/91 39/44/77
s 5
f 39/44/80 43/52/92 41/51/93 40/49/81
s 6
f 41/51/88 44/54/94 45/53/95 42/50/89
s 4
f 42/50/90 45/53/96 46/55/97 43/52/91
s 5
f 43/52/92 46/55/98 44/54/99 41/51/93
s 6
f 44/54/94 47/57/100 48/56/101 45/53/95
s 4
f 45/53/96 48/56/102 49/58/103 46/55/97
s 5
f 46/55/98 49/58/104 47/57/105 44/54/99
s 6
f 47/57/100 50/60/106 51/59/107 48/56/101
s 4
f 48/56/102 51/59/108 52/61/109 49/58/103
s 5
f 49/58/104 52/61/110 50/60/111 47/57/105
s 6
f 50/60/106 53/63/112 54/62/113 51/59/107
s 4
f 51/59/108 54/62/114 55/64/115 52/61/109
s 5
f 52/61/110 55/64/116 53/63/117 50/60/111
s 6
f 53/63/112 56/66/118 57/65/119 54/62/113
s 4
f 54/62/114 57/65/120 58/67/121 55/64/115
s 5
f 55/64/116 58/67/122 56/66/123 53/63/117
s 6
f 56/66/118 59/69/124 60/68/125 57/65/119
s 4
f 57/65/120 60/68/126 61/70/127 58/67/121
s 5
f 58/67/122 61/70/128 59/69/129 56/66/123
s 6
f 59/69/124 62/72/130 63/71/131 60/68/125
s 4
f 60/68/126 63/71/132 64/73/133 61/70/127
s 5
f 61/70/128 64/73/134 62/72/135 59/69/129
s 6
f 62/72/130 65/75/136 66/74/137 63/71/131
s 4
f 63/71/132 66/74/138 67/76/139 64/73/133
s 5
f 64/73/134 67/76/140 65/75/141 62/72/135
s 6
f 65/75/136 68/78/142 69/77/143 66/74/137
s 4
f 66/74/138 69/77/144 70/79/145 67/76/139
s 5
f 67/76/140 70/79/146 68/78/147 65/75/141
s 6
f 68/78/142 71/80/148 69/77/143
s 4
f 69/77/144 71/80/149 70/79/145
s 5
f 70/79/146 71/80/150 68/78/147
